<svg xmlns="http://www.w3.org/2000/svg" viewBox="0 0 100 100">
  <defs>
    <linearGradient id="elderlyMaleGrad" x1="0%" y1="0%" x2="100%" y2="100%">
      <stop offset="0%" style="stop-color:#4E342E;stop-opacity:1" />
      <stop offset="100%" style="stop-color:#795548;stop-opacity:1" />
    </linearGradient>
  </defs>
  <!-- 背景 -->
  <circle cx="50" cy="50" r="50" fill="url(#elderlyMaleGrad)"/>
  <!-- 耳朵 -->
  <ellipse cx="20" cy="58" rx="5" ry="7" fill="#FFCCBC"/>
  <ellipse cx="80" cy="58" rx="5" ry="7" fill="#FFCCBC"/>
  <!-- 脖子 -->
  <rect x="40" y="75" width="20" height="12" fill="#FFCCBC"/>
  <!-- 头发（灰色短发） -->
  <ellipse cx="50" cy="35" rx="26" ry="18" fill="#BDBDBD"/>
  <path d="M22 45 Q25 30 50 28 Q75 30 78 45" fill="none" stroke="#9E9E9E" stroke-width="2"/>
  <!-- 脸部 -->
  <ellipse cx="50" cy="55" rx="24" ry="26" fill="#FFCCBC"/>
  <!-- 额头皱纹 -->
  <path d="M38 42 Q50 40 62 42" fill="none" stroke="#D7CCC8" stroke-width="1.5"/>
  <path d="M40 47 Q50 45 60 47" fill="none" stroke="#D7CCC8" stroke-width="1"/>
  <!-- 眉毛（灰色） -->
  <path d="M35 48 Q42 46 48 48" fill="none" stroke="#BDBDBD" stroke-width="2"/>
  <path d="M52 48 Q58 46 65 48" fill="none" stroke="#BDBDBD" stroke-width="2"/>
  <!-- 眼睛 -->
  <ellipse cx="42" cy="54" rx="4" ry="3" fill="#3E2723"/>
  <ellipse cx="58" cy="54" rx="4" ry="3" fill="#3E2723"/>
  <!-- 眼袋 -->
  <path d="M38 58 Q42 60 46 58" fill="none" stroke="#D7CCC8" stroke-width="1"/>
  <path d="M54 58 Q58 60 62 58" fill="none" stroke="#D7CCC8" stroke-width="1"/>
  <!-- 鼻子 -->
  <path d="M50 56 L47 63 L53 63 Z" fill="#E6A090"/>
  <!-- 嘴巴（严肃） -->
  <line x1="44" y1="68" x2="56" y2="68" stroke="#D84315" stroke-width="2" stroke-linecap="round"/>
  <!-- 胡子 -->
  <path d="M40 70 Q50 75 60 70" fill="none" stroke="#BDBDBD" stroke-width="1.5"/>
  <!-- 衣服领子 -->
  <path d="M25 90 L40 78 L50 82 L60 78 L75 90" fill="#5D4037"/>
</svg>
