<svg xmlns="http://www.w3.org/2000/svg" viewBox="0 0 100 100">
  <defs>
    <linearGradient id="littleBoyGrad" x1="0%" y1="0%" x2="100%" y2="100%">
      <stop offset="0%" style="stop-color:#1565C0;stop-opacity:1" />
      <stop offset="100%" style="stop-color:#42A5F5;stop-opacity:1" />
    </linearGradient>
  </defs>
  <!-- 背景 -->
  <circle cx="50" cy="50" r="50" fill="url(#littleBoyGrad)"/>
  <!-- 耳朵 -->
  <ellipse cx="22" cy="56" rx="4" ry="5" fill="#FFCCBC"/>
  <ellipse cx="78" cy="56" rx="4" ry="5" fill="#FFCCBC"/>
  <!-- 脖子 -->
  <rect x="44" y="78" width="12" height="8" fill="#FFCCBC"/>
  <!-- 头发（黑色短发） -->
  <ellipse cx="50" cy="38" rx="25" ry="15" fill="#212121"/>
  <path d="M30 42 L32 35 L38 42" fill="#212121"/>
  <path d="M45 40 L48 33 L52 40" fill="#212121"/>
  <path d="M58 42 L62 35 L68 42" fill="#212121"/>
  <!-- 刘海 -->
  <path d="M32 45 Q40 40 50 43 Q60 40 68 45" fill="#212121"/>
  <!-- 脸部（圆润） -->
  <ellipse cx="50" cy="57" rx="22" ry="22" fill="#FFCCBC"/>
  <!-- 眉毛 -->
  <path d="M38 50 Q42 48 46 50" fill="none" stroke="#212121" stroke-width="1.5"/>
  <path d="M54 50 Q58 48 62 50" fill="none" stroke="#212121" stroke-width="1.5"/>
  <!-- 眼睛（好奇） -->
  <ellipse cx="42" cy="55" rx="3.5" ry="3" fill="#3E2723"/>
  <ellipse cx="58" cy="55" rx="3.5" ry="3" fill="#3E2723"/>
  <!-- 眼神高光 -->
  <circle cx="43" cy="54" r="1" fill="white"/>
  <circle cx="59" cy="54" r="1" fill="white"/>
  <!-- 鼻子（小巧） -->
  <circle cx="50" cy="60" r="2" fill="#E6A090"/>
  <!-- 嘴巴（开心笑） -->
  <path d="M44 66 Q50 70 56 66" fill="none" stroke="#D84315" stroke-width="2" stroke-linecap="round"/>
  <!-- 脸颊红晕 -->
  <ellipse cx="36" cy="61" rx="4" ry="2.5" fill="#FFCDD2" opacity="0.6"/>
  <ellipse cx="64" cy="61" rx="4" ry="2.5" fill="#FFCDD2" opacity="0.6"/>
  <!-- 衣服（卡通 T 恤） -->
  <path d="M28 88 L42 78 L50 80 L58 78 L72 88" fill="#1E88E5"/>
  <!-- 领口 -->
  <path d="M42 78 Q50 82 58 78" fill="none" stroke="#1565C0" stroke-width="1.5"/>
</svg>
