<svg xmlns="http://www.w3.org/2000/svg" viewBox="0 0 100 100">
  <defs>
    <linearGradient id="middleAgedFemaleGrad" x1="0%" y1="0%" x2="100%" y2="100%">
      <stop offset="0%" style="stop-color:#C62828;stop-opacity:1" />
      <stop offset="100%" style="stop-color:#E53935;stop-opacity:1" />
    </linearGradient>
  </defs>
  <!-- 背景 -->
  <circle cx="50" cy="50" r="50" fill="url(#middleAgedFemaleGrad)"/>
  <!-- 头发（黑色中长发） -->
  <ellipse cx="50" cy="38" rx="26" ry="16" fill="#212121"/>
  <path d="M24 45 Q22 60 25 70" fill="none" stroke="#212121" stroke-width="8" stroke-linecap="round"/>
  <path d="M76 45 Q78 60 75 70" fill="none" stroke="#212121" stroke-width="8" stroke-linecap="round"/>
  <!-- 发际线 -->
  <path d="M25 42 Q30 35 50 33 Q70 35 75 42" fill="none" stroke="#212121" stroke-width="2"/>
  <!-- 耳朵 -->
  <ellipse cx="22" cy="55" rx="4" ry="6" fill="#FFCCBC"/>
  <ellipse cx="78" cy="55" rx="4" ry="6" fill="#FFCCBC"/>
  <!-- 脖子 -->
  <rect x="43" y="77" width="14" height="10" fill="#FFCCBC"/>
  <!-- 脸部 -->
  <ellipse cx="50" cy="56" rx="22" ry="24" fill="#FFCCBC"/>
  <!-- 眼角细纹 -->
  <path d="M37 52 Q35 54 37 56" fill="none" stroke="#D7CCC8" stroke-width="0.8"/>
  <path d="M63 52 Q65 54 63 56" fill="none" stroke="#D7CCC8" stroke-width="0.8"/>
  <!-- 眉毛（修长） -->
  <path d="M37 48 Q42 46 47 48" fill="none" stroke="#212121" stroke-width="1.8"/>
  <path d="M53 48 Q58 46 63 48" fill="none" stroke="#212121" stroke-width="1.8"/>
  <!-- 眼睛（温柔） -->
  <ellipse cx="42" cy="53" rx="3.5" ry="2.8" fill="#3E2723"/>
  <ellipse cx="58" cy="53" rx="3.5" ry="2.8" fill="#3E2723"/>
  <!-- 睫毛 -->
  <path d="M39 50 L38 48" stroke="#212121" stroke-width="1"/>
  <path d="M42 50 L42 48" stroke="#212121" stroke-width="1"/>
  <path d="M58 50 L58 48" stroke="#212121" stroke-width="1"/>
  <path d="M61 50 L62 48" stroke="#212121" stroke-width="1"/>
  <!-- 鼻子 -->
  <path d="M50 55 L48 62 L52 62 Z" fill="#E6A090"/>
  <!-- 嘴巴（优雅微笑） -->
  <path d="M43 66 Q50 69 57 66" fill="none" stroke="#D84315" stroke-width="2" stroke-linecap="round"/>
  <!-- 口红 -->
  <path d="M43 66 Q50 68 57 66" fill="none" stroke="#C62828" stroke-width="1"/>
  <!-- 脸颊红晕 -->
  <ellipse cx="38" cy="59" rx="4" ry="2.5" fill="#FFCDD2" opacity="0.6"/>
  <ellipse cx="62" cy="59" rx="4" ry="2.5" fill="#FFCDD2" opacity="0.6"/>
  <!-- 衣服 -->
  <path d="M25 90 L40 78 L50 81 L60 78 L75 90" fill="#C62828"/>
  <!-- 耳环 -->
  <circle cx="22" cy="62" r="2.5" fill="#FFD700"/>
  <circle cx="78" cy="62" r="2.5" fill="#FFD700"/>
</svg>
