<svg xmlns="http://www.w3.org/2000/svg" viewBox="0 0 100 100">
  <defs>
    <linearGradient id="sonGrad" x1="0%" y1="0%" x2="100%" y2="100%">
      <stop offset="0%" style="stop-color:#42A5F5;stop-opacity:1" />
      <stop offset="100%" style="stop-color:#BBDEFB;stop-opacity:1" />
    </linearGradient>
  </defs>
  <!-- 背景 -->
  <circle cx="50" cy="50" r="50" fill="url(#sonGrad)"/>
  <!-- 头发（短发） -->
  <path d="M20 50 Q20 28 50 25 Q80 28 80 50 Q80 42 50 40 Q20 42 20 50" fill="#3E2723"/>
  <path d="M25 48 Q28 35 50 33 Q72 35 75 48" fill="none" stroke="#3E2723" stroke-width="2"/>
  <!-- 脖子 -->
  <rect x="44" y="70" width="12" height="10" fill="#FFCCBC"/>
  <!-- 脸部 -->
  <ellipse cx="50" cy="50" rx="19" ry="21" fill="#FFCCBC"/>
  <!-- 眼睛 -->
  <ellipse cx="44" cy="48" rx="4" ry="4" fill="#5D4037"/>
  <ellipse cx="56" cy="48" rx="4" ry="4" fill="#5D4037"/>
  <circle cx="45" cy="47" r="1.5" fill="white"/>
  <circle cx="57" cy="47" r="1.5" fill="white"/>
  <!-- 眉毛 -->
  <path d="M40 43 Q44 41 48 43" fill="none" stroke="#5D4037" stroke-width="1.5"/>
  <path d="M52 43 Q56 41 60 43" fill="none" stroke="#5D4037" stroke-width="1.5"/>
  <!-- 鼻子 -->
  <path d="M50 52 L49 56 L51 56 Z" fill="#E6A090"/>
  <!-- 嘴巴（微笑） -->
  <path d="M46 61 Q50 64 54 61" fill="none" stroke="#C2185B" stroke-width="2" stroke-linecap="round"/>
  <!-- 腮红 -->
  <ellipse cx="36" cy="55" rx="3.5" ry="2.5" fill="#F48FB1" opacity="0.4"/>
  <ellipse cx="64" cy="55" rx="3.5" ry="2.5" fill="#F48FB1" opacity="0.4"/>
  <!-- 衣服 -->
  <path d="M30 80 L44 72 L50 76 L56 72 L70 80 L70 92 L30 92 Z" fill="#1976D2"/>
  <!-- 小领子 -->
  <path d="M44 72 L50 78 L56 72" fill="none" stroke="#64B5F6" stroke-width="2"/>
</svg>
