<svg xmlns="http://www.w3.org/2000/svg" viewBox="0 0 100 100">
  <defs>
    <linearGradient id="youngMaleGrad" x1="0%" y1="0%" x2="100%" y2="100%">
      <stop offset="0%" style="stop-color:#006064;stop-opacity:1" />
      <stop offset="100%" style="stop-color:#0097A7;stop-opacity:1" />
    </linearGradient>
  </defs>
  <!-- 背景 -->
  <circle cx="50" cy="50" r="50" fill="url(#youngMaleGrad)"/>
  <!-- 耳朵 -->
  <ellipse cx="20" cy="54" rx="5" ry="7" fill="#FFCCBC"/>
  <ellipse cx="80" cy="54" rx="5" ry="7" fill="#FFCCBC"/>
  <!-- 脖子 -->
  <rect x="43" y="77" width="14" height="10" fill="#FFCCBC"/>
  <!-- 头发（时尚短发） -->
  <ellipse cx="50" cy="36" rx="26" ry="17" fill="#212121"/>
  <path d="M30 40 L35 30 L45 38" fill="#212121" stroke="#212121" stroke-width="2"/>
  <path d="M55 38 L62 28 L70 40" fill="#212121" stroke="#212121" stroke-width="2"/>
  <!-- 刘海 -->
  <path d="M35 42 Q45 38 50 42 Q55 38 65 42" fill="#212121"/>
  <!-- 脸部 -->
  <ellipse cx="50" cy="56" rx="23" ry="25" fill="#FFCCBC"/>
  <!-- 眉毛（浓密有型） -->
  <path d="M36 49 Q42 47 48 49" fill="none" stroke="#212121" stroke-width="2.5"/>
  <path d="M52 49 Q58 47 64 49" fill="none" stroke="#212121" stroke-width="2.5"/>
  <!-- 眼睛（明亮） -->
  <ellipse cx="42" cy="54" rx="4" ry="3.2" fill="#3E2723"/>
  <ellipse cx="58" cy="54" rx="4" ry="3.2" fill="#3E2723"/>
  <!-- 眼神高光 -->
  <circle cx="43" cy="53" r="1" fill="white"/>
  <circle cx="59" cy="53" r="1" fill="white"/>
  <!-- 鼻子 -->
  <path d="M50 56 L48 63 L52 63 Z" fill="#E6A090"/>
  <!-- 嘴巴（自信微笑） -->
  <path d="M44 68 Q50 71 56 68" fill="none" stroke="#D84315" stroke-width="2.5" stroke-linecap="round"/>
  <!-- 衣服（连帽衫） -->
  <path d="M25 90 L38 78 L50 82 L62 78 L75 90" fill="#00ACC1"/>
  <path d="M38 78 Q50 72 62 78" fill="none" stroke="#00838F" stroke-width="1.5"/>
</svg>
